HIERARCHY
ROOT Hips
{
	OFFSET	0.00	0.00	0.00
	CHANNELS 6 Xposition Yposition Zposition Zrotation Xrotation Yrotation
	JOINT Spine
	{
		OFFSET	 0.00	0.01	 0.00
		CHANNELS 3 Zrotation Xrotation Yrotation
		JOINT Spine1
		{
			OFFSET	 0.00	 2.45913012437421	 0.00
			CHANNELS 3 Zrotation Xrotation Yrotation
            JOINT Neck
            {
                OFFSET	 0.00	 2.48462964506057	 0.00
                CHANNELS 3 Zrotation Xrotation Yrotation
                JOINT Head
                {
                    OFFSET	 0.00	 0.927524780924562	 0.00
                    CHANNELS 3 Zrotation Xrotation Yrotation
                    End Site 
                    {
                        OFFSET	 0.00	 1.14999962169752	 0.00
                    }
                }
            }
			JOINT LeftShoulder
			{
				OFFSET	 0.00	 2.48462964506057	 0.00
				CHANNELS 3 Zrotation Xrotation Yrotation
				JOINT LeftUpArm
				{
					OFFSET	 0.00	 1.24881979654096	 0.00
					CHANNELS 3 Zrotation Xrotation Yrotation
					JOINT LeftForeArm
					{
						OFFSET	 0.00	2.59758046908119	 0.00
						CHANNELS 3 Zrotation Xrotation Yrotation
						JOINT LeftHand
						{
							OFFSET	 0.00	2.45542024364365	 0.00
							CHANNELS 3 Zrotation Xrotation Yrotation
							JOINT LeftHandThumb 
							{
								OFFSET	 0.00	0.00	 0.00
								CHANNELS 3 Zrotation Xrotation Yrotation
								End Site
								{
									OFFSET	 0.00	0.00	1.00000003353624
								}
							}
							JOINT L_Wrist_End 
							{
								OFFSET	 0.00	0.99999967115358	 0.00
								CHANNELS 3 Zrotation Xrotation Yrotation
								End Site 
								{
									OFFSET	 0.00	 0.00	 0.00
								}
							}
						}
					}
				}
			}
			JOINT RightShoulder
			{
				OFFSET	 0.00	 2.48462964506057	 0.00
				CHANNELS 3 Zrotation Xrotation Yrotation
				JOINT RightUpArm
				{
					OFFSET	 0.00	 1.24881979654096	 0.00
					CHANNELS 3 Zrotation Xrotation Yrotation
					JOINT RightForeArm
					{
						OFFSET	 0.00	2.59758046908119	 0.00
						CHANNELS 3 Zrotation Xrotation Yrotation
						JOINT RightHand
						{
							OFFSET	 0.00	2.45542024364365	 0.00
							CHANNELS 3 Zrotation Xrotation Yrotation
							JOINT RightHandThumb 
							{
								OFFSET	 0.00	0.00	 0.00
								CHANNELS 3 Zrotation Xrotation Yrotation
								End Site
								{
									OFFSET	 0.00	0.00	1.00000003353624
								}
							}
							JOINT R_Wrist_End 
							{
								OFFSET	 0.00	0.99999967115358	 0.00
								CHANNELS 3 Zrotation Xrotation Yrotation
								End Site 
								{
									OFFSET	 0.00	 0.00	 0.00
								}
							}
						}
					}
				}
			}
		}
	}
	JOINT LeftUpLeg
	{
		OFFSET	 1.2719394002717	 0.00	 0.00
		CHANNELS 3 Zrotation Xrotation Yrotation
		JOINT LeftLowLeg
		{
			OFFSET	 0.00	-4.3429100912261	 0.00
			CHANNELS 3 Zrotation Xrotation Yrotation
			JOINT LeftFoot
			{
				OFFSET	 0.00	-4.48767017425826	 0.00
				CHANNELS 3 Zrotation Xrotation Yrotation
				JOINT LeftToeBase
                {
                    OFFSET	 0.00	0.00	 1.51507020887566
                    CHANNELS 3 Zrotation Xrotation Yrotation
                    End Site 
                    {
                        OFFSET	 0.00	0.00	 0.75000010571191
                    }
                }
			}
		}
	}
	JOINT RightUpLeg
	{
		OFFSET	 -1.2719393604653	 0.00	 0.00
		CHANNELS 3 Zrotation Xrotation Yrotation
		JOINT RightLowLeg
		{
			OFFSET	 0.00	-4.3429100912261	 0.00
			CHANNELS 3 Zrotation Xrotation Yrotation
			JOINT RightFoot
			{
				OFFSET	 0.00	-4.48767017425826	 0.00
				CHANNELS 3 Zrotation Xrotation Yrotation
				JOINT RightToeBase
                {
                    OFFSET	 0.00	0.00	 1.51507020887566
                    CHANNELS 3 Zrotation Xrotation Yrotation
                    End Site 
                    {
                        OFFSET	 0.00	0.00	 0.749999965609858
                    }
                }   
			}
		}
	}
}
MOTION 
Frames:	20 
Frame Time: 0.02 
  4.726310119628907 16.823499755859373 9.273060302734375 53.1272 80.6882 -1624.55 -0.137597 -17.5107 11.7819 0.734393 7.53118 3.49984 44.4703 39.7919 330.94 102.724 -75.743 462.99 -98.46358 -10.6289 350.485 -14.8394 12.0697 -42.8272 0.0 62.8768 0.0 27.3713 -15.3603 -8.66703 0.0 0.0 0.0 0.0 0.0 0.0 112.6263 -0.690748 -360.343 34.902 44.0152 -398.25 0.0 127.534 0.0 -36.367 16.0652 -21.0084 0.0 0.0 0.0 0.0 0.0 0.0 -12.0619 -0.498961 -735.804 0.0 16.9636 0.0 11.8365 -0.7074003 3.51662 0.0 -35.262802 0.0 1.07699 -33.6684 20.743 0.0 17.0428 0.0 48.2225 -3.8314 10.117 0.0 -18.70987 0.0 
  4.622269897460938 16.951600341796876 9.238079833984376 51.0218 80.9518 -1621.93 -0.661784 -17.8761 11.9552 1.08637 8.2667 4.11895 45.2216 38.5839 330.114 100.922 -75.2181 460.81 -98.79176 -10.2902 350.239 -16.6516 11.0189 -42.4387 0.0 64.8143 0.0 27.0166 -15.2727 -8.40561 0.0 0.0 0.0 0.0 0.0 0.0 112.809204 -0.609511 -360.352 34.9903 42.9008 -399.478 0.0 127.295 0.0 -35.727 17.3967 -22.3588 0.0 0.0 0.0 0.0 0.0 0.0 -12.2232 0.694528 -736.003 0.0 17.2551 0.0 11.5875 -1.3083 3.2617 0.0 -35.252098 0.0 2.06732 -34.7655 21.1286 0.0 21.9996 0.0 45.3938 -3.5848007 9.81808 0.0 -20.14477 0.0 
  4.50239013671875 17.086199951171874 9.206099853515624 49.7675 81.4967 -1620.12 -0.967638 -18.0795 12.0846 1.36579 8.94142 4.52046 45.8725 37.7341 329.469 99.3239 -74.8174 458.99 -99.06125 -10.2522 350.462 -18.58 9.99517 -42.613 0.0 66.7592 0.0 25.6488 -14.9257 -8.53653 0.0 0.0 0.0 0.0 0.0 0.0 112.7007 -0.904315 -360.132 35.8977 42.0918 -401.594 0.0 126.812 0.0 -35.9342 18.2576 -23.4529 0.0 0.0 0.0 0.0 0.0 0.0 -12.2578 2.24236 -735.915 0.0 17.5777 0.0 11.3895 -1.7287998 2.88597 0.0 -35.5136 0.0 2.9236 -34.9519 20.5238 0.0 26.3803 0.0 42.7088 -2.9708004 10.1771 0.0 -20.84077 0.0 
  4.37125 17.228900146484374 9.1825 51.0574 82.0057 -1620.77 -0.843076 -18.2622 12.1743 1.45248 9.211 4.54114 46.8428 37.6923 328.819 99.0441 -74.6072 458.727 -99.4768 -10.3666 350.766 -19.9155 8.67241 -42.6892 0.0 68.3789 0.0 24.5013 -14.6174 -8.38719 0.0 0.0 0.0 0.0 0.0 0.0 112.7387 -1.03231 -360.05 36.6016 41.2803 -403.38 0.0 126.395 0.0 -35.6157 18.5866 -23.4997 0.0 0.0 0.0 0.0 0.0 0.0 -11.7841 3.87341 -735.005 0.0 17.6844 0.0 11.3787 -1.9888992 1.87242 0.0 -36.405098 0.0 3.8855 -34.1162 20.4469 0.0 28.8454 0.0 37.0167 -2.4276009 10.2863 0.0 -22.19323 0.0 
  4.2392098999023435 17.376500244140626 9.1664697265625 55.8443 82.0915 -1624.79 -0.431848 -18.6665 12.2021 1.59324 9.12809 4.28725 47.7715 37.9057 328.263 99.0166 -74.5031 458.824 -100.1137 -11.1716 351.289 -20.7578 8.24177 -43.0823 0.0 69.4717 0.0 22.9176 -14.4408 -7.75497 0.0 0.0 0.0 0.0 0.0 0.0 112.8622 -1.15111 -360.105 36.8489 40.8112 -404.529 0.0 126.192 0.0 -34.859 18.5313 -23.0522 0.0 0.0 0.0 0.0 0.0 0.0 -10.8508 4.94803 -734.381 0.0 18.2038 0.0 11.4258 -2.2738 1.01692 0.0 -37.3592 0.0 5.31168 -32.8021 22.5255 0.0 28.9088 0.0 36.5531 -0.29570007 10.8314 0.0 -21.81004 0.0 
  4.105580139160156 17.526600341796875 9.154970092773437 61.427 81.7667 -1629.33 -0.00176613 -19.3725 12.0526 1.74565 8.81248 3.83488 48.4302 38.4297 327.96 98.5133 -74.6767 458.168 -100.496704 -11.6544 351.112 -21.4808 7.24708 -43.084 0.0 70.1046 0.0 21.5375 -14.3598 -7.27752 0.0 0.0 0.0 0.0 0.0 0.0 112.7947 -1.2089 -359.606 37.4528 40.3221 -405.899 0.0 126.004 0.0 -34.558 18.7992 -22.728 0.0 0.0 0.0 0.0 0.0 0.0 -9.89652 5.35892 -734.868 0.0 19.4986 0.0 11.0192 -2.3686008 0.889324 0.0 -38.3629 0.0 6.95195 -31.5293 26.5955 0.0 28.4036 0.0 37.9013 3.1517 9.1593 0.0 -21.66186 0.0 
  3.9642898559570314 17.681600341796877 9.152360229492187 66.4766 81.5876 -1633.19 0.249403 -19.9853 11.6859 1.87087 8.46575 3.28585 49.105 39.1187 327.616 97.4922 -75.0077 457.171 -100.6978 -12.2587 351.065 -21.7351 6.51073 -43.2844 0.0 70.071 0.0 20.7126 -14.2345 -7.50473 0.0 0.0 0.0 0.0 0.0 0.0 112.7322 -1.23993 -358.991 37.8321 40.1281 -406.698 0.0 126.028 0.0 -33.887 18.8798 -23.3147 0.0 0.0 0.0 0.0 0.0 0.0 -8.75395 6.02687 -734.474 0.0 20.4525 0.0 10.7221 -2.0014 -0.377744 0.0 -40.1436 0.0 8.60261 -30.2139 30.6697 0.0 29.0162 0.0 37.1355 3.0815 5.30806 0.0 -21.95882 0.0 
  3.8211599731445314 17.831099853515624 9.154940185546875 71.1909 81.5432 -1636.36 0.227079 -20.4179 11.091 2.09709 8.08296 2.72716 49.3612 39.6724 327.501 95.8536 -75.4047 455.502 -100.6827 -12.661 350.944 -21.736 6.03432 -43.4443 0.0 69.4436 0.0 20.5826 -13.9908 -7.44411 0.0 0.0 0.0 0.0 0.0 0.0 112.4691 -1.42434 -358.159 38.0809 40.2309 -406.965 0.0 126.136 0.0 -33.403 18.8499 -23.4294 0.0 0.0 0.0 0.0 0.0 0.0 -7.77082 6.43151 -734.74 0.0 22.1417 0.0 10.2059 -1.2511005 -1.53777 0.0 -42.1296 0.0 9.87322 -29.0886 32.944 0.0 30.5599 0.0 37.0452 1.0116997 2.67419 0.0 -21.66066 0.0 
  3.6717800903320312 17.963399658203127 9.17344970703125 79.2222 81.5471 -1642.51 0.77546 -20.5725 10.7115 2.18923 7.81207 1.87867 49.5756 40.0082 327.303 94.3758 -75.7367 454.038 -100.7912 -12.9852 350.74 -21.3894 6.03333 -43.6492 0.0 68.4236 0.0 21.0705 -13.941 -6.96045 0.0 0.0 0.0 0.0 0.0 0.0 112.2442 -1.61117 -357.166 38.0037 40.3749 -406.869 0.0 126.361 0.0 -33.3685 18.64 -23.6568 0.0 0.0 0.0 0.0 0.0 0.0 -6.62599 6.53878 -735.817 0.0 24.7862 0.0 9.42174 -0.012299538 -2.25314 0.0 -44.3643 0.0 10.232 -27.7921 30.6529 0.0 31.3372 0.0 34.18 0.9427004 2.44387 0.0 -22.569 0.0 
  3.514580078125 18.0877001953125 9.199730224609375 88.2136 81.6172 -1649.51 1.33719 -20.4967 10.43 2.38382 7.46843 1.1319 49.7832 40.0265 326.782 92.437 -76.1659 452.284 -100.562 -12.9355 350.57 -21.2284 6.09358 -43.8374 0.0 67.2022 0.0 21.7344 -14.0091 -6.51532 0.0 0.0 0.0 0.0 0.0 0.0 111.7816 -2.0467 -356.429 37.8062 40.7189 -406.193 0.0 126.594 0.0 -33.3609 17.9757 -23.7535 0.0 0.0 0.0 0.0 0.0 0.0 -5.55922 6.55931 -736.768 0.0 27.8345 0.0 8.47674 1.9239998 -3.02216 0.0 -47.4351 0.0 9.91992 -26.0531 26.3513 0.0 31.2613 0.0 32.852 0.9939003 3.51937 0.0 -22.37276 0.0 
  3.355409851074219 18.208499755859375 9.230919799804688 97.861 81.558 -1656.81 1.80422 -20.4375 10.0365 2.60979 7.25819 0.341144 49.0085 40.0727 327.111 91.6521 -76.6757 450.74 -100.1443 -12.7215 350.665 -20.9241 6.45354 -44.0866 0.0 65.8744 0.0 22.6984 -14.2181 -6.0099 0.0 0.0 0.0 0.0 0.0 0.0 111.2978 -2.50778 -355.786 37.4849 41.0797 -405.061 0.0 126.875 0.0 -33.4043 16.9396 -23.3598 0.0 0.0 0.0 0.0 0.0 0.0 -4.27671 6.25611 -737.189 0.0 31.2147 0.0 7.60833 4.3672 -4.48 0.0 -51.0079 0.0 9.49442 -23.6781 21.9159 0.0 30.1334 0.0 31.2679 1.1847 4.33541 0.0 -22.29749 0.0 
  3.2060400390625 18.3377001953125 9.265269775390625 107.833 81.2756 -1664.14 1.91198 -20.3393 9.35445 3.15701 7.12785 -0.429896 48.9464 39.8725 326.607 92.5294 -77.09 451.748 -99.74986 -12.3283 350.793 -20.325 6.92922 -44.3477 0.0 64.4094 0.0 23.3441 -14.2746 -5.91888 0.0 0.0 0.0 0.0 0.0 0.0 110.8203 -2.94833 -354.944 37.3517 41.3214 -404.104 0.0 127.143 0.0 -33.7372 15.6568 -22.2333 0.0 0.0 0.0 0.0 0.0 0.0 -2.46549 5.53129 -736.753 0.0 34.8082 0.0 5.9774 7.57314 -7.07091 0.0 -55.6399 0.0 9.59848 -20.6951 18.7842 0.0 28.0507 0.0 30.0737 0.93270016 3.91982 0.0 -22.07219 0.0 
  3.066600036621094 18.4568994140625 9.292869873046875 115.917 80.7644 -1669.37 1.97472 -20.2154 8.69237 3.52445 6.96231 -1.15699 48.8566 39.4615 325.965 94.5534 -77.4646 454.027 -99.38441 -11.8163 350.997 -19.4119 7.68141 -44.3866 0.0 62.8785 0.0 24.31 -14.1457 -5.75003 0.0 0.0 0.0 0.0 0.0 0.0 110.3807 -3.28204 -354.343 36.9935 41.512 -402.639 0.0 127.423 0.0 -33.7897 14.4978 -21.0231 0.0 0.0 0.0 0.0 0.0 0.0 -0.664661 4.068 -736.258 0.0 38.9071 0.0 4.11041 10.96138 -9.52491 0.0 -59.2645 0.0 10.0502 -17.8015 17.0475 0.0 25.7496 0.0 29.0979 0.39509964 2.52016 0.0 -21.89424 0.0 
  2.9431298828125 18.571600341796874 9.3025 120.889 79.9528 -1671.41 1.9163 -20.217 8.02247 3.76867 6.65885 -1.78269 48.6185 38.7022 325.147 95.3641 -77.9315 455.067 -98.6581 -11.3739 351.048 -18.7435 8.56194 -43.9781 0.0 61.4618 0.0 25.0377 -14.0402 -5.52278 0.0 0.0 0.0 0.0 0.0 0.0 109.922 -3.61478 -354.445 36.2747 42.1832 -400.557 0.0 127.717 0.0 -34.6665 13.2805 -20.4462 0.0 0.0 0.0 0.0 0.0 0.0 1.28104 1.48757 -735.133 0.0 43.7451 0.0 1.49166 14.434678 -12.1289 0.0 -61.7104 0.0 10.7874 -15.7127 15.9059 0.0 23.887 0.0 27.9058 -0.34609985 0.79047 0.0 -21.9088 0.0 
  2.8269198608398436 18.682099609375 9.298820190429687 126.15 78.9481 -1673.79 2.09442 -20.0226 7.50274 4.03132 6.26552 -2.44399 47.8044 37.956 324.621 96.6084 -78.5266 457.148 -98.01571 -10.7722 351.221 -17.9727 9.42218 -43.6961 0.0 60.1291 0.0 25.7013 -13.8851 -5.58107 0.0 0.0 0.0 0.0 0.0 0.0 109.6413 -3.8514 -355.389 34.772 43.3045 -397.549 0.0 127.961 0.0 -35.0714 12.4473 -18.6102 0.0 0.0 0.0 0.0 0.0 0.0 3.5176 -1.46931 -733.59 0.0 49.0439 0.0 -0.833286 17.79338 -13.7436 0.0 -62.7115 0.0 11.8817 -13.6888 14.9629 0.0 21.9214 0.0 27.0871 -1.0139008 -0.934259 0.0 -21.87888 0.0 
  2.7142999267578123 18.783299560546876 9.282030029296875 132.454 77.9616 -1677.28 2.6444 -19.6678 7.45615 4.24727 6.27279 -2.95501 47.2919 36.862 323.277 97.6148 -79.4454 458.936 -97.26216 -9.80656 351.046 -17.6788 10.3343 -43.1527 0.0 58.929 0.0 25.9998 -13.6214 -5.61106 0.0 0.0 0.0 0.0 0.0 0.0 109.2004 -4.22175 -354.622 34.6171 43.2809 -396.483 0.0 128.166 0.0 -35.8686 11.9875 -18.5493 0.0 0.0 0.0 0.0 0.0 0.0 5.73854 -4.41638 -732.158 0.0 54.7255 0.0 -2.80528 20.65258 -13.8399 0.0 -60.6846 0.0 13.1064 -11.6329 13.2706 0.0 20.1893 0.0 26.6003 -1.4368992 -2.00102 0.0 -22.42163 0.0 
  2.602120056152344 18.868199462890626 9.25344970703125 138.6 77.1129 -1680.74 3.24004 -19.0648 7.34126 4.62259 6.21221 -3.56433 46.0003 36.2447 322.428 98.6428 -80.8264 461.059 -96.90654 -9.25067 351.458 -17.2272 11.444 -42.8358 0.0 57.8997 0.0 26.5952 -13.6544 -7.00969 0.0 0.0 0.0 0.0 0.0 0.0 109.139 -4.27834 -355.866 32.4463 44.286 -393.322 0.0 128.285 0.0 -36.3815 11.8129 -18.8081 0.0 0.0 0.0 0.0 0.0 0.0 7.57688 -7.28546 -730.997 0.0 60.4275 0.0 -5.09578 23.15757 -12.4056 0.0 -55.7259 0.0 14.4018 -9.62362 11.9352 0.0 18.8283 0.0 25.9818 -2.168501 -3.28101 0.0 -21.24536 0.0 
  2.4919400024414062 18.950799560546876 9.217750244140625 144.574 76.4693 -1684.26 3.83857 -18.3765 7.41441 4.92272 6.45332 -4.01343 44.8507 35.5158 321.215 99.5825 -82.3434 463.212 -96.48517 -8.6127 351.465 -17.1958 12.2619 -42.0957 0.0 57.2079 0.0 26.4705 -14.1353 -7.24968 0.0 0.0 0.0 0.0 0.0 0.0 109.0771 -4.39383 -355.702 31.8051 44.3164 -392.365 0.0 128.283 0.0 -36.7148 12.0223 -19.3497 0.0 0.0 0.0 0.0 0.0 0.0 9.13458 -9.96236 -729.918 0.0 65.8232 0.0 -7.93677 25.057 -9.5479 0.0 -46.5315 0.0 15.8951 -7.61598 12.1741 0.0 17.8436 0.0 26.0702 -3.8311996 -5.57812 0.0 -20.79468 0.0 
  2.3822999572753907 19.026500244140625 9.180040283203125 150.062 76.0668 -1687.42 4.08248 -17.5677 7.24548 5.51255 6.70619 -4.43158 42.6951 35.326 321.121 102.253 -83.9709 466.556 -96.53441 -8.34585 352.114 -17.058 13.2414 -41.9457 0.0 56.8836 0.0 26.1035 -14.6948 -8.13456 0.0 0.0 0.0 0.0 0.0 0.0 108.9553 -4.36572 -355.214 31.8831 43.9043 -392.653 0.0 128.247 0.0 -36.7167 12.2465 -19.8437 0.0 0.0 0.0 0.0 0.0 0.0 10.1837 -12.4598 -729.086 0.0 70.6018 0.0 -10.1787 25.9979 -5.96441 0.0 -39.8425 0.0 17.1993 -5.95809 12.3419 0.0 17.6288 0.0 26.1065 -5.6758003 -7.55966 0.0 -20.20235 0.0 
  2.2729200744628906 19.09030029296875 9.145339965820312 154.474 75.8966 -1689.6 4.56873 -17.0836 7.35853 5.45048 7.52722 -4.83541 40.0807 35.3009 321.864 107.657 -85.259 472.329 -96.5194 -8.17762 352.687 -17.2119 14.1044 -41.5841 0.0 57.1092 0.0 26.012 -14.9937 -9.56922 0.0 0.0 0.0 0.0 0.0 0.0 109.3237 -4.34661 -354.912 31.7934 43.3842 -393.147 0.0 128.345 0.0 -36.4926 11.9282 -20.2666 0.0 0.0 0.0 0.0 0.0 0.0 10.5559 -14.9137 -728.347 0.0 74.9321 0.0 -11.1834 22.81179 -2.52707 0.0 -39.2308 0.0 17.949 -4.90778 10.495 0.0 18.1929 0.0 25.7399 -6.719101 -7.70014 0.0 -20.43358 0.0 
